<svg width="39" height="39" viewBox="0 0 39 39" fill="none" xmlns="http://www.w3.org/2000/svg">
<path d="M19.5 39C30.2696 39 39 30.2696 39 19.5C39 8.73045 30.2696 0 19.5 0C8.73045 0 0 8.73045 0 19.5C0 30.2696 8.73045 39 19.5 39Z" fill="#0F0F0F"/>
<path d="M29.7642 8.89551C29.0229 8.1543 28.2227 7.49902 27.3633 6.92969C26.5146 6.36035 25.6177 5.88232 24.6724 5.49561C23.7378 5.09814 22.7656 4.80273 21.7559 4.60938C20.7461 4.40527 19.7202 4.30322 18.6782 4.30322C17.6255 4.30322 16.5942 4.40527 15.5845 4.60938C14.5854 4.80273 13.6133 5.09814 12.668 5.49561C11.7334 5.88232 10.8364 6.36035 9.97705 6.92969C9.12842 7.49902 8.3335 8.1543 7.59229 8.89551C6.85107 9.63672 6.1958 10.437 5.62646 11.2964C5.05713 12.145 4.57373 13.042 4.17627 13.9873C3.78955 14.9219 3.49414 15.894 3.29004 16.9038C3.09668 17.9028 3 18.9287 3 19.9814C3 21.0234 3.09668 22.0493 3.29004 23.0591C3.49414 24.0688 3.78955 25.041 4.17627 25.9756C4.57373 26.9102 5.05713 27.8071 5.62646 28.6665C6.1958 29.5259 6.85107 30.3208 7.59229 31.0513C8.3335 31.7925 9.12842 32.4531 9.97705 33.0332C10.8364 33.6025 11.7334 34.0806 12.668 34.4673C13.6133 34.854 14.5854 35.144 15.5845 35.3374C16.5942 35.5415 17.6255 35.6436 18.6782 35.6436C19.7202 35.6436 20.7461 35.5415 21.7559 35.3374C22.7656 35.144 23.7378 34.854 24.6724 34.4673C25.6177 34.0806 26.5146 33.6025 27.3633 33.0332C28.2227 32.4531 29.0229 31.7925 29.7642 31.0513C30.5054 30.3208 31.1606 29.5259 31.73 28.6665C32.2993 27.8071 32.7773 26.9102 33.1641 25.9756C33.5508 25.041 33.8462 24.0688 34.0503 23.0591C34.2544 22.0493 34.3564 21.0234 34.3564 19.9814C34.3564 18.9287 34.2544 17.9028 34.0503 16.9038C33.8462 15.894 33.5508 14.9219 33.1641 13.9873C32.7773 13.042 32.2993 12.145 31.73 11.2964C31.1606 10.437 30.5054 9.63672 29.7642 8.89551ZM18.6782 34C16.7446 34 14.9238 33.6348 13.2158 32.9043C11.5186 32.1631 10.0308 31.1587 8.75244 29.8911C7.48486 28.6235 6.48047 27.1411 5.73926 25.4438C5.00879 23.7358 4.64355 21.915 4.64355 19.9814C4.64355 18.0479 5.00879 16.2324 5.73926 14.5352C6.48047 12.8271 7.48486 11.3394 8.75244 10.0718C10.0308 8.79346 11.5186 7.78906 13.2158 7.05859C14.9238 6.31738 16.7446 5.94678 18.6782 5.94678C20.6118 5.94678 22.4272 6.31738 24.1245 7.05859C25.8325 7.78906 27.3203 8.79346 28.5879 10.0718C29.8555 11.3394 30.8545 12.8271 31.585 14.5352C32.3262 16.2324 32.6968 18.0479 32.6968 19.9814C32.6968 21.915 32.3262 23.7358 31.585 25.4438C30.8545 27.1411 29.8555 28.6235 28.5879 29.8911C27.3203 31.1587 25.8325 32.1631 24.1245 32.9043C22.4272 33.6348 20.6118 34 18.6782 34ZM16.1968 29.0532C16.0894 29.0532 15.9819 29.0317 15.8745 28.9888C15.7778 28.9458 15.6919 28.8867 15.6167 28.8115C15.4556 28.6504 15.375 28.457 15.375 28.2314C15.375 27.9951 15.4556 27.7964 15.6167 27.6353L23.2866 19.9814L15.6167 12.3115C15.4556 12.1504 15.375 11.957 15.375 11.7314C15.375 11.4951 15.4556 11.2964 15.6167 11.1353C15.7778 10.9741 15.9712 10.8936 16.1968 10.8936C16.4224 10.8936 16.6157 10.9741 16.7769 11.1353L25.0269 19.3853C25.188 19.5464 25.2686 19.7451 25.2686 19.9814C25.2686 20.207 25.188 20.4004 25.0269 20.5615L16.7769 28.8115C16.7017 28.8867 16.6104 28.9458 16.5029 28.9888C16.4062 29.0317 16.3042 29.0532 16.1968 29.0532Z" fill="white"/>
</svg>
