<svg width="39" height="39" viewBox="0 0 39 39" fill="none" xmlns="http://www.w3.org/2000/svg">
<path d="M19.5 39C30.2696 39 39 30.2696 39 19.5C39 8.73045 30.2696 0 19.5 0C8.73045 0 0 8.73045 0 19.5C0 30.2696 8.73045 39 19.5 39Z" fill="#0F0F0F"/>
<path d="M7.59229 8.89551C8.3335 8.1543 9.12842 7.49902 9.97705 6.92969C10.8364 6.36035 11.7334 5.88232 12.668 5.49561C13.6133 5.09814 14.5854 4.80273 15.5845 4.60938C16.5942 4.40527 17.6255 4.30322 18.6782 4.30322C19.7202 4.30322 20.7461 4.40527 21.7559 4.60938C22.7656 4.80273 23.7378 5.09814 24.6724 5.49561C25.6177 5.88232 26.5146 6.36035 27.3633 6.92969C28.2227 7.49902 29.0229 8.1543 29.7642 8.89551C30.5054 9.63672 31.1606 10.437 31.73 11.2964C32.2993 12.145 32.7773 13.042 33.1641 13.9873C33.5508 14.9219 33.8462 15.894 34.0503 16.9038C34.2544 17.9028 34.3564 18.9287 34.3564 19.9814C34.3564 21.0234 34.2544 22.0493 34.0503 23.0591C33.8462 24.0688 33.5508 25.041 33.1641 25.9756C32.7773 26.9102 32.2993 27.8071 31.73 28.6665C31.1606 29.5259 30.5054 30.3208 29.7642 31.0513C29.0229 31.7925 28.2227 32.4531 27.3633 33.0332C26.5146 33.6025 25.6177 34.0806 24.6724 34.4673C23.7378 34.854 22.7656 35.144 21.7559 35.3374C20.7461 35.5415 19.7202 35.6436 18.6782 35.6436C17.6255 35.6436 16.5942 35.5415 15.5845 35.3374C14.5854 35.144 13.6133 34.854 12.668 34.4673C11.7334 34.0806 10.8364 33.6025 9.97705 33.0332C9.12842 32.4531 8.3335 31.7925 7.59229 31.0513C6.85107 30.3208 6.1958 29.5259 5.62646 28.6665C5.05713 27.8071 4.57373 26.9102 4.17627 25.9756C3.78955 25.041 3.49414 24.0688 3.29004 23.0591C3.09668 22.0493 3 21.0234 3 19.9814C3 18.9287 3.09668 17.9028 3.29004 16.9038C3.49414 15.894 3.78955 14.9219 4.17627 13.9873C4.57373 13.042 5.05713 12.145 5.62646 11.2964C6.1958 10.437 6.85107 9.63672 7.59229 8.89551ZM18.6782 34C20.6118 34 22.4272 33.6348 24.1245 32.9043C25.8325 32.1631 27.3203 31.1587 28.5879 29.8911C29.8555 28.6235 30.8545 27.1411 31.585 25.4438C32.3262 23.7358 32.6968 21.915 32.6968 19.9814C32.6968 18.0479 32.3262 16.2324 31.585 14.5352C30.8545 12.8271 29.8555 11.3394 28.5879 10.0718C27.3203 8.79346 25.8325 7.78906 24.1245 7.05859C22.4272 6.31738 20.6118 5.94678 18.6782 5.94678C16.7446 5.94678 14.9238 6.31738 13.2158 7.05859C11.5186 7.78906 10.0308 8.79346 8.75244 10.0718C7.48486 11.3394 6.48047 12.8271 5.73926 14.5352C5.00879 16.2324 4.64355 18.0479 4.64355 19.9814C4.64355 21.915 5.00879 23.7358 5.73926 25.4438C6.48047 27.1411 7.48486 28.6235 8.75244 29.8911C10.0308 31.1587 11.5186 32.1631 13.2158 32.9043C14.9238 33.6348 16.7446 34 18.6782 34ZM21.1436 29.0532C21.251 29.0532 21.353 29.0317 21.4497 28.9888C21.5571 28.9458 21.6538 28.8867 21.7397 28.8115C21.9009 28.6504 21.9814 28.457 21.9814 28.2314C21.9814 27.9951 21.9009 27.7964 21.7397 27.6353L14.0698 19.9814L21.7397 12.3115C21.9009 12.1504 21.9814 11.957 21.9814 11.7314C21.9814 11.4951 21.9009 11.2964 21.7397 11.1353C21.5786 10.9741 21.3799 10.8936 21.1436 10.8936C20.918 10.8936 20.7246 10.9741 20.5635 11.1353L12.3135 19.3853C12.1523 19.5464 12.0718 19.7451 12.0718 19.9814C12.0718 20.207 12.1523 20.4004 12.3135 20.5615L20.5635 28.8115C20.6494 28.8867 20.7407 28.9458 20.8374 28.9888C20.9448 29.0317 21.0469 29.0532 21.1436 29.0532Z" fill="white"/>
</svg>
